<?xml version="1.0" encoding="UTF-8"?><svg id="Layer_1" xmlns="http://www.w3.org/2000/svg" viewBox="0 0 2941.72 684.89"><defs><style>.cls-1,.cls-2,.cls-3{stroke-width:0px;}.cls-2{fill:#fff;}.cls-3{fill:#ed355e;}.cls-1{fill:#f2eff6;}</style></defs><rect class="cls-3" x="0" y="0" width="684.89" height="684.89" rx="203.36" ry="203.36"/><g id="SvgjsG22439"><path class="cls-2" d="m361.51,289.04c-1.59-3.18-13.24-5.29-19.06-5.29s-13.24,1.06-16.41,2.65-5.29,13.24-5.29,19.06,2.65,18,5.29,19.06c3.18,1.59,10.06,2.65,16.41,2.65s13.24-1.06,16.41-2.65,5.29-13.24,5.29-19.06-1.06-13.24-2.65-16.41Z"/><path class="cls-2" d="m361.51,343.05c-1.59-3.18-13.24-5.29-19.06-5.29s-13.24,1.06-16.41,2.65-5.29,13.24-5.29,19.06,2.65,18,5.29,19.06c3.18,1.59,10.06,2.65,16.41,2.65s13.24-1.06,16.41-2.65,5.29-13.24,5.29-19.06-1.06-13.24-2.65-16.41Z"/><path class="cls-2" d="m412.87,340.4c-3.18-1.59-10.06-2.65-16.41-2.65s-13.24,1.06-16.41,2.65-5.29,13.24-5.29,19.06,1.06,13.24,2.65,16.41c1.59,3.18,13.24,5.29,19.06,5.29s13.24-1.06,16.41-2.65,5.29-13.24,5.29-19.06-2.12-18-5.29-19.06Z"/><path class="cls-2" d="m505,337.76c-5.82,0-18,2.65-19.06,5.29-1.59,3.18-2.65,10.06-2.65,16.41s1.06,13.24,2.65,16.41c1.59,3.18,13.24,5.29,19.06,5.29s13.24-1.06,16.41-2.65,5.29-13.24,5.29-19.06-1.06-13.24-2.65-16.41c-1.06-2.65-13.24-5.29-19.06-5.29Z"/><path class="cls-2" d="m521.41,285.87c-3.18-1.59-10.06-2.65-16.41-2.65s-13.24,1.06-16.41,2.65-5.29,13.24-5.29,19.06,1.06,13.24,2.65,16.41,13.24,5.29,19.06,5.29,13.24-1.06,16.41-2.65,5.29-13.24,5.29-19.06-2.65-17.47-5.29-19.06Z"/><path class="cls-2" d="m416.04,289.04c-1.59-3.18-13.24-5.29-19.06-5.29s-13.24,1.06-16.41,2.65-5.29,13.24-5.29,19.06,2.65,18,5.29,19.06c3.18,1.59,10.06,2.65,16.41,2.65s13.24-1.06,16.41-2.65,5.29-13.24,5.29-19.06-1.59-13.24-2.65-16.41Z"/><path class="cls-2" d="m416.04,235.04c-1.59-3.18-13.24-5.29-19.06-5.29s-13.24,1.06-16.41,2.65-5.29,13.24-5.29,19.06,1.06,13.24,2.65,16.41,13.24,5.29,19.06,5.29,18-2.65,19.06-5.29,2.65-10.06,2.65-16.41-1.59-13.77-2.65-16.41Z"/><path class="cls-2" d="m524.06,235.04c-1.59-3.18-13.24-5.29-19.06-5.29s-18,2.65-19.06,5.29c-1.59,3.18-2.65,10.06-2.65,16.41s1.06,13.24,2.65,16.41c1.59,3.18,13.24,5.29,19.06,5.29s13.24-1.06,16.41-2.65,5.29-13.24,5.29-19.06-1.06-13.77-2.65-16.41Z"/><path class="cls-2" d="m524.06,180.5c-1.59-3.18-13.24-5.29-19.06-5.29s-13.24,1.06-16.41,2.65c-3.18,1.59-5.29,13.24-5.29,19.06s2.65,18,5.29,19.06,10.06,2.65,16.41,2.65,13.24-1.06,16.41-2.65,5.29-13.24,5.29-19.06-1.06-13.24-2.65-16.41Z"/><path class="cls-2" d="m559,229.74c-5.82,0-13.24,1.06-16.41,2.65s-5.29,13.24-5.29,19.06,2.65,18,5.29,19.06c3.18,1.59,10.06,2.65,16.41,2.65s13.24-1.06,16.41-2.65,5.29-13.24,5.29-19.06-1.06-13.24-2.65-16.41-13.24-5.29-19.06-5.29Z"/><path class="cls-2" d="m559,283.75c-5.82,0-18,2.65-19.06,5.29s-2.65,10.06-2.65,16.41,1.06,13.24,2.65,16.41,13.24,5.29,19.06,5.29,13.24-1.06,16.41-2.65,5.29-13.24,5.29-19.06-1.06-13.24-2.65-16.41-13.24-5.29-19.06-5.29Z"/><path class="cls-2" d="m466.87,340.4c-3.18-1.59-10.06-2.65-16.41-2.65s-13.24,1.06-16.41,2.65-5.29,13.24-5.29,19.06,1.06,13.24,2.65,16.41c1.59,3.18,13.24,5.29,19.06,5.29s13.24-1.06,16.41-2.65,5.29-13.24,5.29-19.06-2.12-18-5.29-19.06Z"/><path class="cls-2" d="m466.87,285.87c-3.18-1.59-10.06-2.65-16.41-2.65s-13.24,1.06-16.41,2.65-5.29,13.24-5.29,19.06,1.06,13.24,2.65,16.41c1.59,3.18,13.24,5.29,19.06,5.29s13.24-1.06,16.41-2.65,5.29-13.24,5.29-19.06-2.12-17.47-5.29-19.06Z"/><path class="cls-2" d="m470.05,235.04c-1.59-3.18-13.24-5.29-19.06-5.29s-13.24,1.06-16.41,2.65-5.29,13.24-5.29,19.06,2.65,18,5.29,19.06c3.18,1.59,10.06,2.65,16.41,2.65s13.24-1.06,16.41-2.65,5.29-13.24,5.29-19.06-1.59-13.77-2.65-16.41Z"/><path class="cls-2" d="m470.05,180.5c-1.59-3.18-13.24-5.29-19.06-5.29s-13.24,1.06-16.41,2.65c-3.18,1.59-5.29,13.24-5.29,19.06s1.06,13.24,2.65,16.41,13.24,5.29,19.06,5.29,18-2.65,19.06-5.29c1.59-3.18,2.65-10.06,2.65-16.41s-1.59-13.24-2.65-16.41Z"/><path class="cls-2" d="m450.99,391.76c-5.82,0-18,2.65-19.06,5.29s-2.65,10.06-2.65,16.41,1.06,13.24,2.65,16.41,13.24,5.29,19.06,5.29,13.24-1.06,16.41-2.65c3.18-1.59,5.29-13.24,5.29-19.06s-1.06-13.24-2.65-16.41c-1.59-2.65-13.24-5.29-19.06-5.29Z"/><path class="cls-2" d="m412.87,487.07c3.18-1.59,5.29-13.24,5.29-19.06s-1.06-13.24-2.65-16.41-13.24-5.29-19.06-5.29-18,2.65-19.06,5.29c-1.06,2.65-2.65,10.06-2.65,16.41s1.06,13.24,2.65,16.41c1.59,3.18,13.24,5.29,19.06,5.29s13.24-1.59,16.41-2.65Z"/><path class="cls-2" d="m342.45,500.31c-5.82,0-18,2.65-19.06,5.29-1.59,3.18-2.65,10.06-2.65,16.41s1.06,13.24,2.65,16.41,13.24,5.29,19.06,5.29,13.24-1.06,16.41-2.65,5.29-13.24,5.29-19.06-1.06-13.24-2.65-16.41c-1.06-2.65-13.24-5.29-19.06-5.29Z"/><path class="cls-2" d="m412.87,394.41c-3.18-1.59-10.06-2.65-16.41-2.65s-13.24,1.06-16.41,2.65-5.29,13.24-5.29,19.06,1.06,13.24,2.65,16.41,13.24,5.29,19.06,5.29,13.24-1.06,16.41-2.65c3.18-1.59,5.29-13.24,5.29-19.06s-2.12-18-5.29-19.06Z"/><path class="cls-2" d="m358.86,394.41c-3.18-1.59-10.06-2.65-16.41-2.65s-13.24,1.06-16.41,2.65-5.29,13.24-5.29,19.06,1.06,13.24,2.65,16.41,13.24,5.29,19.06,5.29,13.24-1.06,16.41-2.65c3.18-1.59,5.29-13.24,5.29-19.06s-2.65-18-5.29-19.06Z"/><path class="cls-2" d="m358.86,448.42c-3.18-1.59-10.06-2.65-16.41-2.65s-13.24,1.06-16.41,2.65-5.29,13.24-5.29,19.06,1.06,13.24,2.65,16.41,13.24,5.29,19.06,5.29,13.24-1.06,16.41-2.65,5.29-13.24,5.29-19.06-2.65-17.47-5.29-19.06Z"/><path class="cls-2" d="m268.85,375.88c1.59,3.18,13.24,5.29,19.06,5.29s18-2.65,19.06-5.29,2.65-10.06,2.65-16.41-1.06-13.24-2.65-16.41c-1.59-3.18-13.24-5.29-19.06-5.29s-13.24,1.06-16.41,2.65-5.29,13.24-5.29,19.06,1.59,13.24,2.65,16.41Z"/><path class="cls-2" d="m160.84,375.88c1.59,3.18,13.24,5.29,19.06,5.29s13.24-1.06,16.41-2.65,5.29-13.24,5.29-19.06-2.65-18-5.29-19.06c-3.18-1.59-10.06-2.65-16.41-2.65s-13.24,1.06-16.41,2.65-5.29,13.24-5.29,19.06,1.06,13.24,2.65,16.41Z"/><path class="cls-2" d="m160.84,321.34c1.59,3.18,13.24,5.29,19.06,5.29s18-2.65,19.06-5.29c1.59-3.18,2.65-10.06,2.65-16.41s-1.06-13.24-2.65-16.41-13.24-5.29-19.06-5.29-13.24,1.06-16.41,2.65-5.29,13.24-5.29,19.06,1.06,13.77,2.65,16.41Z"/><path class="cls-2" d="m268.85,321.34c1.59,3.18,13.24,5.29,19.06,5.29s13.24-1.06,16.41-2.65,5.29-13.24,5.29-19.06-1.06-13.24-2.65-16.41c-1.59-3.18-13.24-5.29-19.06-5.29s-18,2.65-19.06,5.29-2.65,10.06-2.65,16.41,1.59,13.77,2.65,16.41Z"/><path class="cls-2" d="m266.73,250.92c0,5.82,2.65,18,5.29,19.06,3.18,1.59,10.06,2.65,16.41,2.65s13.24-1.06,16.41-2.65,5.29-13.24,5.29-19.06-1.06-13.24-2.65-16.41-13.24-5.29-19.06-5.29-13.24,1.06-16.41,2.65c-3.18,1.59-5.29,13.24-5.29,19.06Z"/><path class="cls-2" d="m163.48,270.51c3.18,1.59,10.06,2.65,16.41,2.65s13.24-1.06,16.41-2.65,5.29-13.24,5.29-19.06-1.06-13.77-2.12-16.41c-1.59-3.18-13.24-5.29-19.06-5.29s-13.24,1.06-16.41,2.65-5.29,13.24-5.29,19.06,2.12,17.47,4.77,19.06Z"/><path class="cls-2" d="m158.19,196.92c0,5.82,1.06,13.24,2.65,16.41s13.24,5.29,19.06,5.29,18-2.65,19.06-5.29c1.59-3.18,2.65-10.06,2.65-16.41s-1.06-13.24-2.65-16.41-13.24-5.29-19.06-5.29-13.24,1.06-16.41,2.65c-2.65,1.06-5.29,13.24-5.29,19.06Z"/><path class="cls-2" d="m104.18,250.92c0,5.82,1.06,13.24,2.65,16.41,1.59,3.18,13.24,5.29,19.06,5.29s18-2.65,19.06-5.29,2.65-10.06,2.65-16.41-1.06-13.24-2.65-15.88-13.24-5.29-19.06-5.29-13.24,1.06-16.41,2.12c-2.65,1.59-5.29,13.24-5.29,19.06Z"/><path class="cls-2" d="m125.89,327.17c5.82,0,13.24-1.06,16.41-2.65s5.29-13.24,5.29-19.06-2.65-18-5.29-19.06c-3.18-1.59-10.06-2.65-16.41-2.65s-13.24,1.06-16.41,2.12c-3.18,1.59-5.29,13.24-5.29,19.06s1.06,13.24,2.65,16.41c1.59,3.18,13.24,5.82,19.06,5.82Z"/><path class="cls-2" d="m253.49,343.05c-1.59-3.18-13.24-5.29-19.06-5.29s-13.24,1.06-16.41,2.65-5.29,13.24-5.29,19.06,1.06,13.24,2.65,16.41,13.24,5.29,19.06,5.29,18-2.65,19.06-5.29,2.65-10.06,2.65-16.41-1.59-13.24-2.65-16.41Z"/><path class="cls-2" d="m253.49,289.04c-1.59-3.18-13.24-5.29-19.06-5.29s-13.24,1.06-16.41,2.65-5.29,13.24-5.29,19.06,1.06,13.24,2.65,16.41,13.24,5.29,19.06,5.29,18-2.65,19.06-5.29,2.65-10.06,2.65-16.41-1.59-13.24-2.65-16.41Z"/><path class="cls-2" d="m253.49,235.04c-1.59-3.18-13.24-5.29-19.06-5.29s-18,2.65-19.06,5.29c-1.59,3.18-2.65,10.06-2.65,16.41s1.06,13.24,2.65,16.41c1.59,3.18,13.24,5.29,19.06,5.29s13.24-1.06,16.41-2.65c3.18-1.59,5.29-13.24,5.29-19.06s-1.59-13.77-2.65-16.41Z"/><path class="cls-2" d="m253.49,180.5c-1.59-3.18-13.24-5.29-19.06-5.29s-13.24,1.06-16.41,2.65c-3.18,1.59-5.29,13.24-5.29,19.06s2.65,18,5.29,19.06,10.06,2.65,16.41,2.65,13.24-1.06,16.41-2.65,5.29-13.24,5.29-19.06-1.59-13.24-2.65-16.41Z"/><path class="cls-2" d="m250.32,394.41c-3.18-1.59-10.06-2.65-16.41-2.65s-13.24,1.06-16.41,2.65-5.29,13.24-5.29,19.06,1.06,13.24,2.65,16.41,13.24,5.29,19.06,5.29,13.24-1.06,16.41-2.65c3.18-1.59,5.29-13.24,5.29-19.06s-2.12-18-5.29-19.06Z"/><path class="cls-2" d="m268.85,483.89c1.59,3.18,13.24,5.29,19.06,5.29s13.24-1.06,16.41-2.65,5.29-13.24,5.29-19.06-2.65-18-5.29-19.06-10.06-2.65-16.41-2.65-13.24,1.06-16.41,2.65-5.29,13.24-5.29,19.06,1.59,13.77,2.65,16.41Z"/><path class="cls-2" d="m268.85,429.89c1.59,3.18,13.24,5.29,19.06,5.29s18-2.65,19.06-5.29,2.65-10.06,2.65-16.41-1.06-13.24-2.65-16.41-13.24-5.29-19.06-5.29-13.24,1.06-16.41,2.65-5.29,13.24-5.29,19.06,1.59,13.24,2.65,16.41Z"/></g><path class="cls-1" d="m821.93,390.33h76.79c1.9,35.73,22.05,63.87,58.92,63.87,22.81,0,38.4-10.26,38.4-31.17,0-25.09-23.19-35.35-72.61-57.02-49.8-21.67-92.38-43.72-92.38-93.52,0-56.64,49.42-85.54,112.91-85.54s115.95,28.51,127.73,87.82h-75.27c-2.66-29.65-20.15-54.36-53.22-54.36-23.57,0-36.11,11.4-35.73,29.27.38,25.47,28.51,37.26,72.61,56.64,56.26,24.71,93.52,44.1,93.52,93.14,0,55.88-48.28,88.2-118.23,88.2s-126.59-33.07-133.43-97.32Z"/><path class="cls-1" d="m1115.41,405.54v-80.97h-35.35v-34.21h35.35v-33.45l75.65-47.14h3.04v80.59h58.54v34.21h-58.54v82.49c0,21.67,8.74,31.55,26.61,31.55s28.51-8.36,38.4-22.05l6.46,26.23c-15.21,25.85-41.06,42.96-77.55,42.96-42.2,0-72.61-22.43-72.61-80.21Z"/><path class="cls-1" d="m1273.39,385.77c0-65.77,46.76-102.64,116.71-102.64s117.09,36.87,117.09,102.64-46.76,102.26-117.09,102.26-116.71-36.87-116.71-102.26Zm116.71,70.71c25.47,0,39.16-22.43,39.16-70.71s-13.69-71.09-39.16-71.09-39.16,22.81-39.16,71.09,14.07,70.71,39.16,70.71Z"/><path class="cls-1" d="m1519.4,478.91c12.54-11.02,15.97-30.03,15.97-61.59v-63.49c0-31.93-3.42-50.56-15.97-61.97v-1.52h100.36c-4.56,12.54-5.7,31.93-5.7,63.49v4.56h.76c6.84-34.21,33.07-72.99,80.59-72.99v64.63c-63.49-.38-79.83,13.69-81.35,42.58v25.09c0,31.55,3.8,50.18,17.87,61.2v1.9h-112.53v-1.9Z"/><path class="cls-1" d="m1711.76,570.15v-58.92c9.12,4.18,25.47,7.6,42.2,7.6,25.47,0,48.66-10.26,60.06-38.02h-25.47l-55.88-138c-10.26-25.09-18.25-41.82-28.89-50.94v-1.52h109.1v1.52c-11.79,7.98-6.46,23.95,2.28,48.66l23.57,70.71,25.09-70.71c9.12-24.71,10.64-41.44-.38-48.66v-1.52h74.89v1.52c-8.74,4.56-20.15,26.61-29.27,49.04l-57.02,138c-29.27,71.47-57.78,98.08-104.16,98.08-13.69,0-26.99-2.66-36.12-6.84Z"/><path class="cls-1" d="m1943,478.91c12.54-11.02,15.97-30.03,15.97-61.59v-63.49c0-31.93-3.42-50.56-15.97-61.97v-1.52h100.36c-4.56,12.54-5.7,31.93-5.7,63.49v4.56h.76c6.84-34.21,33.07-72.99,80.59-72.99v64.63c-63.49-.38-79.83,13.69-81.35,42.58v25.09c0,31.55,3.8,50.18,17.87,61.2v1.9h-112.53v-1.9Z"/><path class="cls-1" d="m2123.82,437.47c0-37.26,30.41-49.8,82.87-63.87,39.16-10.64,51.7-16.73,51.7-36.11.38-16.35-8.36-24.33-24.33-24.33-19.77,0-34.97,13.69-34.97,44.86h-67.67c3.8-48.28,56.64-75.27,113.29-75.27,49.8,0,92.38,19.39,92.38,80.59v53.22c0,22.81,4.18,30.41,14.83,30.41,4.18,0,7.98-1.52,11.4-3.8v24.71c-14.07,10.64-30.79,17.11-50.18,17.11-24.71,0-50.18-12.55-52.46-50.56-11.02,30.79-37.26,52.84-76.79,52.84s-60.06-18.63-60.06-49.8Zm95.04,4.94c23.95,0,40.68-22.05,40.68-53.22v-15.97c-3.42,7.22-12.16,11.02-29.65,17.49-23.19,8.74-31.93,17.11-31.93,31.93,0,13.69,9.12,19.77,20.91,19.77Z"/><path class="cls-1" d="m2372.97,478.91c12.55-11.02,15.97-30.03,15.97-61.59v-63.87c0-31.93-2.66-50.18-14.07-60.44v-1.9l93.14-3.8v130.01c0,31.55,3.04,50.56,15.59,61.59v1.9h-110.63v-1.9Zm16.35-282.84h76.79v57.78h-76.79v-57.78Z"/><path class="cls-1" d="m2493.29,419.99h69.57c2.28,25.47,17.49,41.44,42.96,41.44,16.73,0,27.37-6.84,27.37-19.01,0-15.21-14.07-21.29-52.46-34.21-41.82-14.45-79.83-25.85-79.83-65.01s41.06-60.44,96.18-60.44,94.66,21.67,104.92,60.44h-64.25c-3.04-20.15-15.59-33.83-39.54-33.83-17.49,0-26.23,7.6-26.23,17.49,0,16.35,21.67,24.33,60.44,36.11,41.44,12.93,71.85,26.99,71.85,62.35,0,42.2-42.2,62.73-99.22,62.73-66.15,0-105.68-26.23-111.77-68.05Z"/><path class="cls-1" d="m2718.19,387.29c0-67.67,51.7-104.16,114.05-104.16,68.43,0,108.72,39.92,109.49,98.08h-150.54c1.9,38.78,20.91,61.97,55.12,61.97,30.03,0,47.52-15.59,56.26-41.82h38.4c-9.5,47.52-44.1,86.68-111.77,86.68-62.73,0-111-35.35-111-100.74Zm151.3-29.27c-2.66-29.27-15.59-45.62-37.26-45.62s-36.11,16.73-39.92,45.62h77.17Z"/></svg>